<mxfile host="app.diagrams.net" modified="2022-12-28T10:58:59.998Z" agent="5.0 (Windows NT 10.0; Win64; x64) AppleWebKit/537.36 (KHTML, like Gecko) Chrome/108.0.0.0 Safari/537.36" version="20.7.4" etag="XDfMBxCcV61xFpFy8izn" type="github">
  <diagram id="J22Cc0U0loNrD__ms5sC" name="Halaman-1">
    <mxGraphModel dx="2625" dy="2622" grid="1" gridSize="10" guides="1" tooltips="1" connect="1" arrows="1" fold="1" page="1" pageScale="1" pageWidth="827" pageHeight="1169" math="0" shadow="0">
      <root>
        <mxCell id="0" />
        <mxCell id="1" parent="0" />
        <mxCell id="hm0Kv9-TPxVgquShZWlJ-15" value="" style="rounded=0;whiteSpace=wrap;html=1;" vertex="1" parent="1">
          <mxGeometry x="200" y="-570" width="530" height="1410" as="geometry" />
        </mxCell>
        <mxCell id="hm0Kv9-TPxVgquShZWlJ-19" style="rounded=0;orthogonalLoop=1;jettySize=auto;html=1;entryX=0;entryY=0.5;entryDx=0;entryDy=0;" edge="1" parent="1" source="hm0Kv9-TPxVgquShZWlJ-1" target="hm0Kv9-TPxVgquShZWlJ-2">
          <mxGeometry relative="1" as="geometry" />
        </mxCell>
        <mxCell id="hm0Kv9-TPxVgquShZWlJ-20" style="edgeStyle=none;rounded=0;orthogonalLoop=1;jettySize=auto;html=1;entryX=0;entryY=0.5;entryDx=0;entryDy=0;" edge="1" parent="1" source="hm0Kv9-TPxVgquShZWlJ-1" target="hm0Kv9-TPxVgquShZWlJ-3">
          <mxGeometry relative="1" as="geometry" />
        </mxCell>
        <mxCell id="hm0Kv9-TPxVgquShZWlJ-26" style="edgeStyle=none;rounded=0;orthogonalLoop=1;jettySize=auto;html=1;entryX=0;entryY=0.5;entryDx=0;entryDy=0;" edge="1" parent="1" source="hm0Kv9-TPxVgquShZWlJ-1" target="hm0Kv9-TPxVgquShZWlJ-4">
          <mxGeometry relative="1" as="geometry" />
        </mxCell>
        <mxCell id="hm0Kv9-TPxVgquShZWlJ-27" style="edgeStyle=none;rounded=0;orthogonalLoop=1;jettySize=auto;html=1;entryX=0;entryY=0.5;entryDx=0;entryDy=0;" edge="1" parent="1" source="hm0Kv9-TPxVgquShZWlJ-1" target="hm0Kv9-TPxVgquShZWlJ-5">
          <mxGeometry relative="1" as="geometry" />
        </mxCell>
        <mxCell id="hm0Kv9-TPxVgquShZWlJ-28" style="edgeStyle=none;rounded=0;orthogonalLoop=1;jettySize=auto;html=1;entryX=0;entryY=0.5;entryDx=0;entryDy=0;" edge="1" parent="1" source="hm0Kv9-TPxVgquShZWlJ-1" target="hm0Kv9-TPxVgquShZWlJ-6">
          <mxGeometry relative="1" as="geometry" />
        </mxCell>
        <mxCell id="hm0Kv9-TPxVgquShZWlJ-29" style="edgeStyle=none;rounded=0;orthogonalLoop=1;jettySize=auto;html=1;entryX=0;entryY=0.5;entryDx=0;entryDy=0;" edge="1" parent="1" source="hm0Kv9-TPxVgquShZWlJ-1" target="hm0Kv9-TPxVgquShZWlJ-7">
          <mxGeometry relative="1" as="geometry" />
        </mxCell>
        <mxCell id="hm0Kv9-TPxVgquShZWlJ-30" style="edgeStyle=none;rounded=0;orthogonalLoop=1;jettySize=auto;html=1;entryX=0;entryY=0.5;entryDx=0;entryDy=0;" edge="1" parent="1" source="hm0Kv9-TPxVgquShZWlJ-1" target="hm0Kv9-TPxVgquShZWlJ-8">
          <mxGeometry relative="1" as="geometry" />
        </mxCell>
        <mxCell id="hm0Kv9-TPxVgquShZWlJ-31" style="edgeStyle=none;rounded=0;orthogonalLoop=1;jettySize=auto;html=1;entryX=0;entryY=0.5;entryDx=0;entryDy=0;" edge="1" parent="1" source="hm0Kv9-TPxVgquShZWlJ-1" target="hm0Kv9-TPxVgquShZWlJ-9">
          <mxGeometry relative="1" as="geometry" />
        </mxCell>
        <mxCell id="hm0Kv9-TPxVgquShZWlJ-32" style="edgeStyle=none;rounded=0;orthogonalLoop=1;jettySize=auto;html=1;entryX=0;entryY=0.5;entryDx=0;entryDy=0;" edge="1" parent="1" source="hm0Kv9-TPxVgquShZWlJ-1" target="hm0Kv9-TPxVgquShZWlJ-10">
          <mxGeometry relative="1" as="geometry" />
        </mxCell>
        <mxCell id="hm0Kv9-TPxVgquShZWlJ-33" style="edgeStyle=none;rounded=0;orthogonalLoop=1;jettySize=auto;html=1;entryX=0;entryY=0.5;entryDx=0;entryDy=0;" edge="1" parent="1" source="hm0Kv9-TPxVgquShZWlJ-1" target="hm0Kv9-TPxVgquShZWlJ-11">
          <mxGeometry relative="1" as="geometry" />
        </mxCell>
        <mxCell id="hm0Kv9-TPxVgquShZWlJ-34" style="edgeStyle=none;rounded=0;orthogonalLoop=1;jettySize=auto;html=1;entryX=0;entryY=0.5;entryDx=0;entryDy=0;" edge="1" parent="1" source="hm0Kv9-TPxVgquShZWlJ-1" target="hm0Kv9-TPxVgquShZWlJ-12">
          <mxGeometry relative="1" as="geometry" />
        </mxCell>
        <mxCell id="hm0Kv9-TPxVgquShZWlJ-35" style="edgeStyle=none;rounded=0;orthogonalLoop=1;jettySize=auto;html=1;entryX=0;entryY=0.5;entryDx=0;entryDy=0;" edge="1" parent="1" source="hm0Kv9-TPxVgquShZWlJ-1" target="hm0Kv9-TPxVgquShZWlJ-13">
          <mxGeometry relative="1" as="geometry" />
        </mxCell>
        <mxCell id="hm0Kv9-TPxVgquShZWlJ-59" style="edgeStyle=none;rounded=0;orthogonalLoop=1;jettySize=auto;html=1;entryX=0;entryY=0.5;entryDx=0;entryDy=0;" edge="1" parent="1" source="hm0Kv9-TPxVgquShZWlJ-1" target="hm0Kv9-TPxVgquShZWlJ-58">
          <mxGeometry relative="1" as="geometry" />
        </mxCell>
        <mxCell id="hm0Kv9-TPxVgquShZWlJ-1" value="Wisatawan" style="shape=umlActor;verticalLabelPosition=bottom;verticalAlign=top;html=1;outlineConnect=0;" vertex="1" parent="1">
          <mxGeometry x="40" y="105" width="30" height="60" as="geometry" />
        </mxCell>
        <mxCell id="hm0Kv9-TPxVgquShZWlJ-2" value="Melihat alamat singkat (Gedangsari, Gunungkidul, DIY)&amp;nbsp;" style="ellipse;whiteSpace=wrap;html=1;" vertex="1" parent="1">
          <mxGeometry x="290" y="-490" width="120" height="80" as="geometry" />
        </mxCell>
        <mxCell id="hm0Kv9-TPxVgquShZWlJ-3" value="Melihat jam operasional hari ini" style="ellipse;whiteSpace=wrap;html=1;" vertex="1" parent="1">
          <mxGeometry x="290" y="-390" width="120" height="80" as="geometry" />
        </mxCell>
        <mxCell id="hm0Kv9-TPxVgquShZWlJ-4" value="Melihat harga tiket masuk (HTM)" style="ellipse;whiteSpace=wrap;html=1;" vertex="1" parent="1">
          <mxGeometry x="290" y="-290" width="120" height="80" as="geometry" />
        </mxCell>
        <mxCell id="hm0Kv9-TPxVgquShZWlJ-5" value="Melihat aksesibilitas jalan (dukungan roda dua/roda empat)" style="ellipse;whiteSpace=wrap;html=1;" vertex="1" parent="1">
          <mxGeometry x="290" y="-200" width="120" height="80" as="geometry" />
        </mxCell>
        <mxCell id="hm0Kv9-TPxVgquShZWlJ-6" value="Melihat fasilitas" style="ellipse;whiteSpace=wrap;html=1;" vertex="1" parent="1">
          <mxGeometry x="290" y="-110" width="120" height="80" as="geometry" />
        </mxCell>
        <mxCell id="hm0Kv9-TPxVgquShZWlJ-7" value="Melihat spot" style="ellipse;whiteSpace=wrap;html=1;" vertex="1" parent="1">
          <mxGeometry x="290" y="-10" width="120" height="80" as="geometry" />
        </mxCell>
        <mxCell id="hm0Kv9-TPxVgquShZWlJ-8" value="Melihat galeri/foto" style="ellipse;whiteSpace=wrap;html=1;" vertex="1" parent="1">
          <mxGeometry x="290" y="80" width="120" height="80" as="geometry" />
        </mxCell>
        <mxCell id="hm0Kv9-TPxVgquShZWlJ-9" value="Melihat video" style="ellipse;whiteSpace=wrap;html=1;" vertex="1" parent="1">
          <mxGeometry x="290" y="170" width="120" height="80" as="geometry" />
        </mxCell>
        <mxCell id="hm0Kv9-TPxVgquShZWlJ-10" value="Melihat alamat lengkap" style="ellipse;whiteSpace=wrap;html=1;" vertex="1" parent="1">
          <mxGeometry x="290" y="260" width="120" height="80" as="geometry" />
        </mxCell>
        <mxCell id="hm0Kv9-TPxVgquShZWlJ-11" value="Melihat map" style="ellipse;whiteSpace=wrap;html=1;" vertex="1" parent="1">
          <mxGeometry x="290" y="440" width="120" height="80" as="geometry" />
        </mxCell>
        <mxCell id="hm0Kv9-TPxVgquShZWlJ-12" value="Melihat objek wisata sekitar" style="ellipse;whiteSpace=wrap;html=1;" vertex="1" parent="1">
          <mxGeometry x="290" y="530" width="120" height="80" as="geometry" />
        </mxCell>
        <mxCell id="hm0Kv9-TPxVgquShZWlJ-13" value="Mengubah bahasa aplikasi" style="ellipse;whiteSpace=wrap;html=1;" vertex="1" parent="1">
          <mxGeometry x="290" y="620" width="120" height="80" as="geometry" />
        </mxCell>
        <mxCell id="hm0Kv9-TPxVgquShZWlJ-18" value="Aplikasi GVG" style="text;html=1;strokeColor=none;fillColor=none;align=center;verticalAlign=middle;whiteSpace=wrap;rounded=0;" vertex="1" parent="1">
          <mxGeometry x="395" y="-560" width="140" height="30" as="geometry" />
        </mxCell>
        <mxCell id="hm0Kv9-TPxVgquShZWlJ-22" style="edgeStyle=none;rounded=0;orthogonalLoop=1;jettySize=auto;html=1;entryX=1;entryY=0.5;entryDx=0;entryDy=0;dashed=1;" edge="1" parent="1" source="hm0Kv9-TPxVgquShZWlJ-21" target="hm0Kv9-TPxVgquShZWlJ-3">
          <mxGeometry relative="1" as="geometry">
            <Array as="points">
              <mxPoint x="470" y="-350" />
            </Array>
          </mxGeometry>
        </mxCell>
        <mxCell id="hm0Kv9-TPxVgquShZWlJ-25" value="&amp;lt;&amp;lt;extend&amp;gt;&amp;gt;" style="edgeLabel;html=1;align=center;verticalAlign=middle;resizable=0;points=[];" vertex="1" connectable="0" parent="hm0Kv9-TPxVgquShZWlJ-22">
          <mxGeometry x="0.0119" y="-1" relative="1" as="geometry">
            <mxPoint as="offset" />
          </mxGeometry>
        </mxCell>
        <mxCell id="hm0Kv9-TPxVgquShZWlJ-21" value="Melihat jam operasional semua hari" style="ellipse;whiteSpace=wrap;html=1;" vertex="1" parent="1">
          <mxGeometry x="520" y="-390" width="120" height="80" as="geometry" />
        </mxCell>
        <mxCell id="hm0Kv9-TPxVgquShZWlJ-39" style="edgeStyle=none;rounded=0;orthogonalLoop=1;jettySize=auto;html=1;entryX=1.002;entryY=0.444;entryDx=0;entryDy=0;dashed=1;entryPerimeter=0;" edge="1" parent="1" source="hm0Kv9-TPxVgquShZWlJ-36" target="hm0Kv9-TPxVgquShZWlJ-13">
          <mxGeometry relative="1" as="geometry" />
        </mxCell>
        <mxCell id="hm0Kv9-TPxVgquShZWlJ-42" value="&amp;lt;&amp;lt;extend&amp;gt;&amp;gt;" style="edgeLabel;html=1;align=center;verticalAlign=middle;resizable=0;points=[];" vertex="1" connectable="0" parent="hm0Kv9-TPxVgquShZWlJ-39">
          <mxGeometry x="-0.2335" relative="1" as="geometry">
            <mxPoint as="offset" />
          </mxGeometry>
        </mxCell>
        <mxCell id="hm0Kv9-TPxVgquShZWlJ-36" value="Memilih&lt;br&gt;Bahasa Indonesia" style="ellipse;whiteSpace=wrap;html=1;" vertex="1" parent="1">
          <mxGeometry x="510" y="620" width="120" height="80" as="geometry" />
        </mxCell>
        <mxCell id="hm0Kv9-TPxVgquShZWlJ-41" style="edgeStyle=none;rounded=0;orthogonalLoop=1;jettySize=auto;html=1;exitX=0;exitY=0.5;exitDx=0;exitDy=0;entryX=1;entryY=0.5;entryDx=0;entryDy=0;dashed=1;" edge="1" parent="1" source="hm0Kv9-TPxVgquShZWlJ-37" target="hm0Kv9-TPxVgquShZWlJ-13">
          <mxGeometry relative="1" as="geometry" />
        </mxCell>
        <mxCell id="hm0Kv9-TPxVgquShZWlJ-43" value="&amp;lt;&amp;lt;extend&amp;gt;&amp;gt;" style="edgeLabel;html=1;align=center;verticalAlign=middle;resizable=0;points=[];" vertex="1" connectable="0" parent="hm0Kv9-TPxVgquShZWlJ-41">
          <mxGeometry x="-0.1341" relative="1" as="geometry">
            <mxPoint as="offset" />
          </mxGeometry>
        </mxCell>
        <mxCell id="hm0Kv9-TPxVgquShZWlJ-37" value="Memilih Bahasa Inggris" style="ellipse;whiteSpace=wrap;html=1;" vertex="1" parent="1">
          <mxGeometry x="510" y="720" width="120" height="80" as="geometry" />
        </mxCell>
        <mxCell id="hm0Kv9-TPxVgquShZWlJ-46" style="edgeStyle=none;rounded=0;orthogonalLoop=1;jettySize=auto;html=1;entryX=1;entryY=0.5;entryDx=0;entryDy=0;dashed=1;" edge="1" parent="1" source="hm0Kv9-TPxVgquShZWlJ-44" target="hm0Kv9-TPxVgquShZWlJ-12">
          <mxGeometry relative="1" as="geometry" />
        </mxCell>
        <mxCell id="hm0Kv9-TPxVgquShZWlJ-48" value="&amp;lt;&amp;lt;extend&amp;gt;&amp;gt;" style="edgeLabel;html=1;align=center;verticalAlign=middle;resizable=0;points=[];" vertex="1" connectable="0" parent="hm0Kv9-TPxVgquShZWlJ-46">
          <mxGeometry x="-0.1262" y="2" relative="1" as="geometry">
            <mxPoint as="offset" />
          </mxGeometry>
        </mxCell>
        <mxCell id="hm0Kv9-TPxVgquShZWlJ-44" value="Melihat map Puncak Cabaan" style="ellipse;whiteSpace=wrap;html=1;" vertex="1" parent="1">
          <mxGeometry x="510" y="530" width="120" height="80" as="geometry" />
        </mxCell>
        <mxCell id="hm0Kv9-TPxVgquShZWlJ-47" style="edgeStyle=none;rounded=0;orthogonalLoop=1;jettySize=auto;html=1;entryX=0.975;entryY=0.35;entryDx=0;entryDy=0;entryPerimeter=0;dashed=1;" edge="1" parent="1" source="hm0Kv9-TPxVgquShZWlJ-45" target="hm0Kv9-TPxVgquShZWlJ-12">
          <mxGeometry relative="1" as="geometry" />
        </mxCell>
        <mxCell id="hm0Kv9-TPxVgquShZWlJ-49" value="&amp;lt;&amp;lt;extend&amp;gt;&amp;gt;" style="edgeLabel;html=1;align=center;verticalAlign=middle;resizable=0;points=[];" vertex="1" connectable="0" parent="hm0Kv9-TPxVgquShZWlJ-47">
          <mxGeometry x="-0.1044" y="-2" relative="1" as="geometry">
            <mxPoint as="offset" />
          </mxGeometry>
        </mxCell>
        <mxCell id="hm0Kv9-TPxVgquShZWlJ-45" value="Melihat map Air Terjun Yohnan" style="ellipse;whiteSpace=wrap;html=1;" vertex="1" parent="1">
          <mxGeometry x="510" y="430" width="120" height="80" as="geometry" />
        </mxCell>
        <mxCell id="hm0Kv9-TPxVgquShZWlJ-54" style="edgeStyle=none;rounded=0;orthogonalLoop=1;jettySize=auto;html=1;dashed=1;entryX=1;entryY=0.5;entryDx=0;entryDy=0;" edge="1" parent="1" source="hm0Kv9-TPxVgquShZWlJ-50" target="hm0Kv9-TPxVgquShZWlJ-6">
          <mxGeometry relative="1" as="geometry" />
        </mxCell>
        <mxCell id="hm0Kv9-TPxVgquShZWlJ-55" value="&amp;lt;&amp;lt;extend&amp;gt;&amp;gt;" style="edgeLabel;html=1;align=center;verticalAlign=middle;resizable=0;points=[];" vertex="1" connectable="0" parent="hm0Kv9-TPxVgquShZWlJ-54">
          <mxGeometry x="-0.1503" y="1" relative="1" as="geometry">
            <mxPoint as="offset" />
          </mxGeometry>
        </mxCell>
        <mxCell id="hm0Kv9-TPxVgquShZWlJ-50" value="Melihat ketersediaan toilet, tempat makan, musala, tempat parkir, tempat sampah, taman, gazebo, pendopo" style="ellipse;whiteSpace=wrap;html=1;" vertex="1" parent="1">
          <mxGeometry x="493.75" y="-127.5" width="172.5" height="115" as="geometry" />
        </mxCell>
        <mxCell id="hm0Kv9-TPxVgquShZWlJ-58" value="Melihat rute dan waktu tempuh" style="ellipse;whiteSpace=wrap;html=1;" vertex="1" parent="1">
          <mxGeometry x="290" y="350" width="120" height="80" as="geometry" />
        </mxCell>
      </root>
    </mxGraphModel>
  </diagram>
</mxfile>
